<svg xmlns="http://www.w3.org/2000/svg" width="1024" height="1024"><path d="M48.571 698.076V392.362h294.286l1.139-309.913 317.46-1.515.505 311.933 315.182-.505v305.714l-315 .715-1.429 307.857H343.571l-.714-308.572z" class="main-stroke-outline" style="fill:#fff;fill-rule:evenodd;stroke:#000;stroke-width:25.39999962;stroke-linecap:butt;stroke-linejoin:round;stroke-miterlimit:4;stroke-dasharray:none;stroke-opacity:1" transform="translate(0 -28.362)"/><path d="m257.143 477.362-.022 130.967-135.692-69.895zM566.626 291.648l-130.967-.022 69.895-135.692ZM776.428 600.702l.022-130.967 135.693 69.896zM442.517 794.22l130.967.02-69.895 135.694z" class="stroke-outline" style="fill:none;fill-rule:evenodd;stroke:#000;stroke-width:20;stroke-linecap:butt;stroke-linejoin:round;stroke-miterlimit:4;stroke-dasharray:none;stroke-opacity:1" transform="translate(0 -28.362)"/><path fill="none" d="M48.571 392.362h317.143v305.714H48.571z" style="fill:#000;fill-opacity:0;stroke:none;stroke-width:20;stroke-linecap:butt;stroke-linejoin:round;stroke-miterlimit:4;stroke-dasharray:none;stroke-opacity:1;cursor:pointer" transform="translate(0 -28.362)"/><path fill="none" d="M344.695 83.533h317.143v311.429H344.695z" style="fill:#000;fill-opacity:0;stroke:none;stroke-width:20;stroke-linecap:butt;stroke-linejoin:round;stroke-miterlimit:4;stroke-dasharray:none;stroke-opacity:1;cursor:pointer" transform="translate(0 -28.362)"/><path fill="none" d="M658.571 390.934h317.143v311.429H658.571z" style="fill:#000;fill-opacity:0;stroke:none;stroke-width:20;stroke-linecap:butt;stroke-linejoin:round;stroke-miterlimit:4;stroke-dasharray:none;stroke-opacity:1;cursor:pointer" transform="translate(0 -28.362)"/><path fill="none" d="M341.714 696.362h317.143v311.429H341.714z" style="fill:#000;fill-opacity:0;stroke:none;stroke-width:20;stroke-linecap:butt;stroke-linejoin:round;stroke-miterlimit:4;stroke-dasharray:none;stroke-opacity:1;cursor:pointer" transform="translate(0 -28.362)"/></svg>